<svg width="24" height="20" viewBox="0 0 24 20" fill="none" xmlns="http://www.w3.org/2000/svg">
<path d="M2.25 0.5C1.65326 0.5 1.08097 0.756807 0.65901 1.21393C0.237053 1.67105 0 2.29103 0 2.9375L0 17.5625C0 18.209 0.237053 18.829 0.65901 19.2861C1.08097 19.7432 1.65326 20 2.25 20H21.75C22.3467 20 22.919 19.7432 23.341 19.2861C23.7629 18.829 24 18.209 24 17.5625V2.9375C24 2.29103 23.7629 1.67105 23.341 1.21393C22.919 0.756807 22.3467 0.5 21.75 0.5H2.25ZM21.75 2.125C21.9489 2.125 22.1397 2.2106 22.2803 2.36298C22.421 2.51535 22.5 2.72201 22.5 2.9375V12.6875L16.8375 9.52363C16.6968 9.44729 16.5376 9.42081 16.3822 9.44793C16.2269 9.47505 16.0834 9.5544 15.972 9.67475L10.407 15.7035L6.417 12.824C6.27294 12.7201 6.10014 12.6734 5.92791 12.6917C5.75567 12.7101 5.5946 12.7924 5.472 12.9247L1.503 16.75V17.6275C1.50121 17.6059 1.50021 17.5842 1.5 17.5625V2.9375C1.5 2.72201 1.57902 2.51535 1.71967 2.36298C1.86032 2.2106 2.05109 2.125 2.25 2.125H21.75Z" fill="#3A312E"/>
</svg>
