<svg width="17" height="21" viewBox="0 0 17 21" fill="none" xmlns="http://www.w3.org/2000/svg">
<path d="M9.54922 19.75C11.8203 17.2422 17 11.1641 17 7.75C17 3.60938 13.1927 0.25 8.5 0.25C3.80729 0.25 0 3.60938 0 7.75C0 11.1641 5.17969 17.2422 7.45078 19.75C7.99531 20.3477 9.00469 20.3477 9.54922 19.75ZM8.5 5.25C9.25145 5.25 9.97212 5.51339 10.5035 5.98223C11.0348 6.45107 11.3333 7.08696 11.3333 7.75C11.3333 8.41304 11.0348 9.04893 10.5035 9.51777C9.97212 9.98661 9.25145 10.25 8.5 10.25C7.74855 10.25 7.02788 9.98661 6.49653 9.51777C5.96518 9.04893 5.66667 8.41304 5.66667 7.75C5.66667 7.08696 5.96518 6.45107 6.49653 5.98223C7.02788 5.51339 7.74855 5.25 8.5 5.25Z" fill="#D7D7D7"/>
</svg>
