<svg width="35" height="35" viewBox="0 0 35 35" fill="none" xmlns="http://www.w3.org/2000/svg">
<g clip-path="url(#clip0_29_65)">
<path d="M17.8026 32.1189C13.8575 32.1189 10.074 30.5517 7.2844 27.7621C4.4948 24.9725 2.92761 21.189 2.92761 17.2439C2.92761 13.2988 4.4948 9.51529 7.2844 6.72568C10.074 3.93608 13.8575 2.3689 17.8026 2.3689C21.7477 2.3689 25.5312 3.93608 28.3208 6.72568C31.1104 9.51529 32.6776 13.2988 32.6776 17.2439C32.6776 21.189 31.1104 24.9725 28.3208 27.7621C25.5312 30.5517 21.7477 32.1189 17.8026 32.1189ZM17.8026 34.2439C22.3113 34.2439 26.6353 32.4528 29.8234 29.2647C33.0115 26.0766 34.8026 21.7526 34.8026 17.2439C34.8026 12.7352 33.0115 8.4112 29.8234 5.22308C26.6353 2.03496 22.3113 0.243896 17.8026 0.243896C13.2939 0.243896 8.96992 2.03496 5.7818 5.22308C2.59368 8.4112 0.802612 12.7352 0.802612 17.2439C0.802612 21.7526 2.59368 26.0766 5.7818 29.2647C8.96992 32.4528 13.2939 34.2439 17.8026 34.2439Z" fill="#8D4337"/>
<path d="M15.6819 23.6189C15.6819 23.3398 15.7368 23.0635 15.8436 22.8057C15.9504 22.5479 16.107 22.3136 16.3043 22.1163C16.5016 21.919 16.7359 21.7624 16.9937 21.6557C17.2515 21.5489 17.5278 21.4939 17.8069 21.4939C18.0859 21.4939 18.3623 21.5489 18.6201 21.6557C18.8779 21.7624 19.1122 21.919 19.3095 22.1163C19.5068 22.3136 19.6633 22.5479 19.7701 22.8057C19.8769 23.0635 19.9319 23.3398 19.9319 23.6189C19.9319 24.1825 19.708 24.723 19.3095 25.1215C18.911 25.52 18.3705 25.7439 17.8069 25.7439C17.2433 25.7439 16.7028 25.52 16.3043 25.1215C15.9058 24.723 15.6819 24.1825 15.6819 23.6189ZM15.8901 10.8583C15.8618 10.5902 15.8902 10.3191 15.9734 10.0627C16.0567 9.80632 16.1928 9.57027 16.3732 9.3699C16.5535 9.16952 16.774 9.0093 17.0202 8.89963C17.2665 8.78995 17.5331 8.73328 17.8026 8.73328C18.0722 8.73328 18.3388 8.78995 18.585 8.89963C18.8313 9.0093 19.0517 9.16952 19.2321 9.3699C19.4124 9.57027 19.5486 9.80632 19.6318 10.0627C19.7151 10.3191 19.7434 10.5902 19.7151 10.8583L18.9714 18.3107C18.9464 18.6034 18.8124 18.8761 18.596 19.0749C18.3796 19.2736 18.0965 19.3839 17.8026 19.3839C17.5088 19.3839 17.2257 19.2736 17.0093 19.0749C16.7928 18.8761 16.6589 18.6034 16.6339 18.3107L15.8901 10.8583Z" fill="#8D4337"/>
</g>
<defs>
<clipPath id="clip0_29_65">
<rect width="34" height="34" fill="white" transform="translate(0.802612 0.243896)"/>
</clipPath>
</defs>
</svg>
