<svg width="37" height="40" viewBox="0 0 37 40" fill="none" xmlns="http://www.w3.org/2000/svg">
<path d="M0.640015 38.7534C0.639823 38.9705 0.708077 39.1839 0.838061 39.3726C0.968045 39.5612 1.15528 39.7187 1.38133 39.8295C1.60737 39.9402 1.86445 40.0005 2.12724 40.0042C2.39004 40.008 2.64949 39.9552 2.88007 39.851L18.8026 32.6754L34.7251 39.851C34.9557 39.9552 35.2151 40.008 35.4779 40.0042C35.7407 40.0005 35.9978 39.9402 36.2239 39.8295C36.4499 39.7187 36.6371 39.5612 36.7671 39.3726C36.8971 39.1839 36.9654 38.9705 36.9652 38.7534V5.00044C36.9652 3.67424 36.3273 2.40236 35.1919 1.46459C34.0566 0.526831 32.5166 0 30.911 0L6.69421 0C5.08854 0 3.54863 0.526831 2.41325 1.46459C1.27787 2.40236 0.640015 3.67424 0.640015 5.00044V38.7534ZM18.8026 11.026C23.0012 7.46316 33.4961 13.7012 18.8026 21.7194C4.10907 13.7012 14.604 7.46566 18.8026 11.031V11.026Z" fill="#8D4337"/>
</svg>
